<svg width="556" height="472" viewBox="0 0 556 472" fill="none" xmlns="http://www.w3.org/2000/svg">
<g filter="url(#filter0_d)">
<path d="M314.813 436.626C340.115 436.626 360.626 416.115 360.626 390.813C360.626 365.511 340.115 345 314.813 345C289.511 345 269 365.511 269 390.813C269 416.115 289.511 436.626 314.813 436.626Z" fill="#F9FCFF"/>
<path d="M320.785 392.861V399.489L314.844 402.766V396.138L320.785 392.861Z" fill="#1792FF"/>
<path d="M314.845 396.138V402.766L308.852 399.489L308.878 392.861L314.845 396.138Z" fill="#A4D8FF"/>
<path d="M320.788 392.863L314.847 396.14L308.879 392.863L314.821 389.611L320.788 392.863Z" fill="white"/>
<path fill-rule="evenodd" clip-rule="evenodd" d="M314.272 388.615C314.61 388.43 315.02 388.429 315.359 388.614L321.327 391.866C321.691 392.065 321.918 392.447 321.918 392.862V399.49C321.918 399.903 321.693 400.283 321.332 400.482L315.39 403.759C315.05 403.946 314.639 403.947 314.299 403.761L308.305 400.484C307.94 400.285 307.713 399.901 307.715 399.485L307.741 392.857C307.743 392.445 307.968 392.065 308.33 391.867L314.272 388.615ZM314.818 390.901L310.006 393.535L309.985 398.819L314.84 401.473L319.65 398.82V393.535L314.818 390.901Z" fill="#001423"/>
<path fill-rule="evenodd" clip-rule="evenodd" d="M307.882 392.316C308.184 391.767 308.873 391.566 309.422 391.868L315.39 395.145C315.752 395.344 315.978 395.725 315.978 396.138V402.766C315.978 403.392 315.47 403.9 314.844 403.9C314.218 403.9 313.71 403.392 313.71 402.766V396.809L308.33 393.855C307.782 393.554 307.581 392.865 307.882 392.316Z" fill="white"/>
<path d="M314.821 396.106V402.733L308.879 406.01V399.383L314.821 396.106Z" fill="#1792FF"/>
<path d="M308.877 399.383V406.01L302.883 402.733L302.909 396.106L308.877 399.383Z" fill="#A4D8FF"/>
<path d="M314.816 396.106L308.874 399.383L302.906 396.106L308.848 392.854L314.816 396.106Z" fill="white"/>
<path fill-rule="evenodd" clip-rule="evenodd" d="M308.307 391.861C308.646 391.675 309.055 391.675 309.394 391.86L315.362 395.112C315.726 395.311 315.953 395.692 315.953 396.107V402.735C315.953 403.148 315.728 403.528 315.367 403.728L309.425 407.005C309.086 407.192 308.674 407.193 308.334 407.007L302.34 403.73C301.975 403.53 301.748 403.147 301.75 402.731L301.776 396.103C301.778 395.69 302.003 395.311 302.365 395.113L308.307 391.861ZM308.853 394.147L304.041 396.781L304.02 402.064L308.875 404.719L313.685 402.066V396.781L308.853 394.147Z" fill="#001423"/>
<path fill-rule="evenodd" clip-rule="evenodd" d="M301.918 395.56C302.219 395.012 302.908 394.811 303.457 395.112L309.425 398.389C309.787 398.588 310.013 398.969 310.013 399.383V406.011C310.013 406.637 309.505 407.144 308.879 407.144C308.253 407.144 307.745 406.637 307.745 406.011V400.054L302.366 397.1C301.817 396.799 301.616 396.109 301.918 395.56Z" fill="white"/>
<path d="M308.86 399.353V405.981L302.918 409.257V402.63L308.86 399.353Z" fill="#1792FF"/>
<path d="M302.916 402.63V409.257L296.922 405.981L296.948 399.353L302.916 402.63Z" fill="#A4D8FF"/>
<path d="M308.855 399.353L302.913 402.629L296.945 399.353L302.887 396.1L308.855 399.353Z" fill="white"/>
<path fill-rule="evenodd" clip-rule="evenodd" d="M302.346 395.106C302.685 394.921 303.094 394.921 303.433 395.105L309.401 398.358C309.765 398.556 309.992 398.938 309.992 399.353V405.981C309.992 406.394 309.767 406.774 309.406 406.974L303.464 410.25C303.125 410.438 302.713 410.438 302.373 410.252L296.379 406.976C296.014 406.776 295.787 406.392 295.789 405.976L295.815 399.349C295.817 398.936 296.042 398.557 296.405 398.359L302.346 395.106ZM302.892 397.393L298.08 400.026L298.059 405.31L302.914 407.964L307.725 405.311V400.026L302.892 397.393Z" fill="#001423"/>
<path fill-rule="evenodd" clip-rule="evenodd" d="M295.953 398.807C296.254 398.258 296.943 398.058 297.492 398.359L303.46 401.636C303.823 401.835 304.048 402.216 304.048 402.63V409.257C304.048 409.883 303.54 410.391 302.914 410.391C302.288 410.391 301.78 409.883 301.78 409.257V403.3L296.401 400.346C295.852 400.045 295.651 399.356 295.953 398.807Z" fill="white"/>
<path d="M326.746 396.106V402.733L320.805 406.01V399.383L326.746 396.106Z" fill="#1792FF"/>
<path d="M320.81 399.383V406.01L314.816 402.733L314.842 396.106L320.81 399.383Z" fill="#A4D8FF"/>
<path d="M326.749 396.106L320.808 399.383L314.84 396.106L320.782 392.854L326.749 396.106Z" fill="white"/>
<path fill-rule="evenodd" clip-rule="evenodd" d="M320.241 391.861C320.579 391.675 320.989 391.675 321.328 391.86L327.295 395.112C327.66 395.311 327.887 395.692 327.887 396.107V402.735C327.887 403.148 327.662 403.528 327.3 403.728L321.359 407.005C321.019 407.192 320.607 407.193 320.267 407.007L314.273 403.73C313.908 403.53 313.682 403.147 313.684 402.731L313.71 396.103C313.711 395.69 313.937 395.311 314.299 395.113L320.241 391.861ZM320.786 394.147L315.974 396.781L315.954 402.064L320.809 404.719L325.619 402.066V396.781L320.786 394.147Z" fill="#001423"/>
<path fill-rule="evenodd" clip-rule="evenodd" d="M313.843 395.56C314.145 395.012 314.834 394.811 315.383 395.112L321.351 398.389C321.713 398.588 321.939 398.969 321.939 399.383V406.011C321.939 406.637 321.431 407.144 320.805 407.144C320.179 407.144 319.671 406.637 319.671 406.011V400.054L314.291 397.1C313.743 396.799 313.542 396.109 313.843 395.56Z" fill="white"/>
<path d="M320.785 399.353V405.981L314.844 409.257V402.63L320.785 399.353Z" fill="#1792FF"/>
<path d="M314.845 402.63V409.257L308.852 405.981L308.878 399.353L314.845 402.63Z" fill="#A4D8FF"/>
<path d="M320.788 399.353L314.847 402.63L308.879 399.353L314.821 396.101L320.788 399.353Z" fill="white"/>
<path fill-rule="evenodd" clip-rule="evenodd" d="M314.272 395.106C314.61 394.921 315.02 394.921 315.359 395.105L321.327 398.358C321.691 398.556 321.918 398.938 321.918 399.353V405.981C321.918 406.394 321.693 406.774 321.332 406.974L315.39 410.25C315.05 410.438 314.639 410.438 314.299 410.252L308.305 406.976C307.94 406.776 307.713 406.392 307.715 405.976L307.741 399.349C307.743 398.936 307.968 398.557 308.33 398.359L314.272 395.106ZM314.818 397.393L310.006 400.026L309.985 405.31L314.84 407.964L319.65 405.311V400.026L314.818 397.393Z" fill="#001423"/>
<path fill-rule="evenodd" clip-rule="evenodd" d="M307.882 398.807C308.184 398.258 308.873 398.058 309.422 398.359L315.39 401.636C315.752 401.835 315.978 402.216 315.978 402.63V409.257C315.978 409.883 315.47 410.391 314.844 410.391C314.218 410.391 313.71 409.883 313.71 409.257V403.3L308.33 400.346C307.782 400.045 307.581 399.356 307.882 398.807Z" fill="white"/>
<path d="M314.821 402.597V409.224L308.879 412.501V405.874L314.821 402.597Z" fill="#1792FF"/>
<path d="M308.877 405.874V412.501L302.883 409.224L302.909 402.597L308.877 405.874Z" fill="#A4D8FF"/>
<path d="M314.823 402.598L308.882 405.875L302.914 402.598L308.856 399.345L314.823 402.598Z" fill="white"/>
<path fill-rule="evenodd" clip-rule="evenodd" d="M308.307 398.351C308.646 398.166 309.055 398.165 309.394 398.35L315.362 401.602C315.726 401.801 315.953 402.183 315.953 402.598V409.225C315.953 409.638 315.728 410.019 315.367 410.218L309.425 413.495C309.086 413.682 308.674 413.683 308.334 413.497L302.34 410.22C301.975 410.021 301.748 409.637 301.75 409.221L301.776 402.593C301.778 402.181 302.003 401.801 302.365 401.603L308.307 398.351ZM308.853 400.637L304.041 403.271L304.02 408.555L308.875 411.209L313.685 408.556V403.271L308.853 400.637Z" fill="#001423"/>
<path fill-rule="evenodd" clip-rule="evenodd" d="M301.918 402.05C302.219 401.501 302.908 401.3 303.457 401.602L309.425 404.879C309.787 405.078 310.013 405.459 310.013 405.873V412.5C310.013 413.126 309.505 413.634 308.879 413.634C308.253 413.634 307.745 413.126 307.745 412.5V406.543L302.366 403.589C301.817 403.288 301.616 402.599 301.918 402.05Z" fill="white"/>
<path d="M332.715 399.352V405.98L326.773 409.257V402.629L332.715 399.352Z" fill="#1792FF"/>
<path d="M326.771 402.629V409.257L320.777 405.98L320.803 399.352L326.771 402.629Z" fill="#A4D8FF"/>
<path d="M332.714 399.353L326.772 402.629L320.805 399.353L326.746 396.1L332.714 399.353Z" fill="white"/>
<path fill-rule="evenodd" clip-rule="evenodd" d="M326.202 395.106C326.54 394.921 326.95 394.921 327.289 395.105L333.256 398.358C333.621 398.556 333.847 398.938 333.847 399.353V405.981C333.847 406.394 333.623 406.774 333.261 406.974L327.32 410.25C326.98 410.438 326.568 410.438 326.228 410.252L320.234 406.976C319.869 406.776 319.643 406.392 319.645 405.976L319.671 399.349C319.672 398.936 319.898 398.557 320.26 398.359L326.202 395.106ZM326.747 397.393L321.935 400.026L321.915 405.31L326.77 407.964L331.58 405.311V400.026L326.747 397.393Z" fill="#001423"/>
<path fill-rule="evenodd" clip-rule="evenodd" d="M319.812 398.807C320.113 398.258 320.803 398.057 321.352 398.358L327.319 401.635C327.682 401.834 327.907 402.215 327.907 402.629V409.257C327.907 409.883 327.4 410.391 326.774 410.391C326.147 410.391 325.64 409.883 325.64 409.257V403.3L320.26 400.346C319.711 400.045 319.511 399.355 319.812 398.807Z" fill="white"/>
<path d="M326.746 402.597V409.224L320.805 412.501V405.874L326.746 402.597Z" fill="#1792FF"/>
<path d="M320.81 405.874V412.501L314.816 409.224L314.842 402.597L320.81 405.874Z" fill="#A4D8FF"/>
<path d="M326.749 402.598L320.808 405.875L314.84 402.598L320.782 399.345L326.749 402.598Z" fill="white"/>
<path fill-rule="evenodd" clip-rule="evenodd" d="M320.241 398.351C320.579 398.166 320.989 398.165 321.328 398.35L327.295 401.602C327.66 401.801 327.887 402.183 327.887 402.598V409.225C327.887 409.638 327.662 410.019 327.3 410.218L321.359 413.495C321.019 413.682 320.607 413.683 320.267 413.497L314.273 410.22C313.908 410.021 313.682 409.637 313.684 409.221L313.71 402.593C313.711 402.181 313.937 401.801 314.299 401.603L320.241 398.351ZM320.786 400.637L315.974 403.271L315.954 408.555L320.809 411.209L325.619 408.556V403.271L320.786 400.637Z" fill="#001423"/>
<path fill-rule="evenodd" clip-rule="evenodd" d="M313.843 402.05C314.145 401.501 314.834 401.3 315.383 401.602L321.351 404.879C321.713 405.078 321.939 405.459 321.939 405.873V412.5C321.939 413.126 321.431 413.634 320.805 413.634C320.179 413.634 319.671 413.126 319.671 412.5V406.543L314.291 403.589C313.743 403.288 313.542 402.599 313.843 402.05Z" fill="white"/>
<path d="M320.785 405.845V412.473L314.844 415.75V409.122L320.785 405.845Z" fill="#1792FF"/>
<path d="M314.845 409.122V415.75L308.852 412.473L308.878 405.845L314.845 409.122Z" fill="#A4D8FF"/>
<path d="M320.788 405.845L314.847 409.122L308.879 405.845L314.821 402.593L320.788 405.845Z" fill="white"/>
<path fill-rule="evenodd" clip-rule="evenodd" d="M314.272 401.598C314.61 401.413 315.02 401.413 315.359 401.597L321.327 404.849C321.691 405.048 321.918 405.43 321.918 405.845V412.473C321.918 412.886 321.693 413.266 321.332 413.465L315.39 416.742C315.05 416.93 314.639 416.93 314.299 416.744L308.305 413.467C307.94 413.268 307.713 412.884 307.715 412.468L307.741 405.841C307.743 405.428 307.968 405.049 308.33 404.85L314.272 401.598ZM314.818 403.885L310.006 406.518L309.985 411.802L314.84 414.456L319.65 411.803V406.518L314.818 403.885Z" fill="#001423"/>
<path fill-rule="evenodd" clip-rule="evenodd" d="M307.882 405.3C308.184 404.752 308.873 404.551 309.422 404.852L315.39 408.129C315.752 408.328 315.978 408.709 315.978 409.123V415.751C315.978 416.377 315.47 416.884 314.844 416.884C314.218 416.884 313.71 416.377 313.71 415.751V409.794L308.33 406.84C307.782 406.539 307.581 405.849 307.882 405.3Z" fill="white"/>
<path d="M320.785 386.201V392.828L314.844 396.105V389.478L320.785 386.201Z" fill="#1792FF"/>
<path d="M314.845 389.478V396.105L308.852 392.828L308.878 386.201L314.845 389.478Z" fill="#A4D8FF"/>
<path d="M320.788 386.199L314.847 389.476L308.879 386.199L314.821 382.947L320.788 386.199Z" fill="white"/>
<path fill-rule="evenodd" clip-rule="evenodd" d="M314.272 381.954C314.61 381.768 315.02 381.768 315.359 381.953L321.327 385.205C321.691 385.404 321.918 385.785 321.918 386.2V392.828C321.918 393.241 321.693 393.621 321.332 393.821L315.39 397.098C315.05 397.285 314.639 397.286 314.299 397.1L308.305 393.823C307.94 393.623 307.713 393.24 307.715 392.824L307.741 386.196C307.743 385.783 307.968 385.404 308.33 385.206L314.272 381.954ZM314.818 384.24L310.006 386.874L309.985 392.157L314.84 394.812L319.65 392.159V386.874L314.818 384.24Z" fill="#001423"/>
<path fill-rule="evenodd" clip-rule="evenodd" d="M307.882 385.654C308.184 385.106 308.873 384.905 309.422 385.206L315.39 388.483C315.752 388.682 315.978 389.063 315.978 389.477V396.105C315.978 396.731 315.47 397.238 314.844 397.238C314.218 397.238 313.71 396.731 313.71 396.105V390.148L308.33 387.194C307.782 386.893 307.581 386.203 307.882 385.654Z" fill="white"/>
<path d="M314.821 389.445V396.072L308.879 399.349V392.721L314.821 389.445Z" fill="#1792FF"/>
<path d="M308.877 392.721V399.349L302.883 396.072L302.909 389.445L308.877 392.721Z" fill="#A4D8FF"/>
<path d="M314.823 389.444L308.882 392.721L302.914 389.444L308.856 386.192L314.823 389.444Z" fill="white"/>
<path fill-rule="evenodd" clip-rule="evenodd" d="M308.307 385.199C308.646 385.014 309.055 385.013 309.394 385.198L315.362 388.45C315.726 388.649 315.953 389.031 315.953 389.446V396.073C315.953 396.486 315.728 396.867 315.367 397.066L309.425 400.343C309.086 400.53 308.674 400.531 308.334 400.345L302.34 397.068C301.975 396.868 301.748 396.485 301.75 396.069L301.776 389.441C301.778 389.028 302.003 388.649 302.365 388.451L308.307 385.199ZM308.853 387.485L304.041 390.119L304.02 395.402L308.875 398.057L313.685 395.404V390.119L308.853 387.485Z" fill="#001423"/>
<path fill-rule="evenodd" clip-rule="evenodd" d="M301.918 388.899C302.219 388.35 302.908 388.15 303.457 388.451L309.425 391.728C309.787 391.927 310.013 392.308 310.013 392.722V399.349C310.013 399.975 309.505 400.483 308.879 400.483C308.253 400.483 307.745 399.975 307.745 399.349V393.393L302.366 390.439C301.817 390.137 301.616 389.448 301.918 388.899Z" fill="white"/>
<path d="M308.86 392.691V399.318L302.918 402.595V395.968L308.86 392.691Z" fill="#1792FF"/>
<path d="M302.916 395.968V402.595L296.922 399.318L296.948 392.691L302.916 395.968Z" fill="#A4D8FF"/>
<path d="M308.863 392.69L302.921 395.967L296.953 392.69L302.895 389.438L308.863 392.69Z" fill="white"/>
<path fill-rule="evenodd" clip-rule="evenodd" d="M302.346 388.446C302.685 388.26 303.094 388.26 303.433 388.445L309.401 391.697C309.765 391.895 309.992 392.277 309.992 392.692V399.32C309.992 399.733 309.767 400.113 309.406 400.313L303.464 403.59C303.125 403.777 302.713 403.778 302.373 403.592L296.379 400.315C296.014 400.115 295.787 399.732 295.789 399.316L295.815 392.688C295.817 392.275 296.042 391.896 296.405 391.698L302.346 388.446ZM302.892 390.732L298.08 393.366L298.059 398.649L302.914 401.304L307.725 398.651V393.366L302.892 390.732Z" fill="#001423"/>
<path fill-rule="evenodd" clip-rule="evenodd" d="M295.953 392.145C296.254 391.596 296.943 391.395 297.492 391.697L303.46 394.973C303.823 395.173 304.048 395.553 304.048 395.967V402.595C304.048 403.221 303.54 403.729 302.914 403.729C302.288 403.729 301.78 403.221 301.78 402.595V396.638L296.401 393.684C295.852 393.383 295.651 392.694 295.953 392.145Z" fill="white"/>
<path d="M326.746 389.442V396.07L320.805 399.347V392.719L326.746 389.442Z" fill="#1792FF"/>
<path d="M320.81 392.719V399.347L314.816 396.07L314.842 389.442L320.81 392.719Z" fill="#A4D8FF"/>
<path d="M326.749 389.443L320.808 392.72L314.84 389.443L320.782 386.191L326.749 389.443Z" fill="white"/>
<path fill-rule="evenodd" clip-rule="evenodd" d="M320.241 385.2C320.579 385.015 320.989 385.014 321.328 385.199L327.295 388.451C327.66 388.65 327.887 389.032 327.887 389.447V396.074C327.887 396.487 327.662 396.868 327.3 397.067L321.359 400.344C321.019 400.531 320.607 400.532 320.267 400.346L314.273 397.069C313.908 396.87 313.682 396.486 313.684 396.07L313.71 389.442C313.711 389.03 313.937 388.65 314.299 388.452L320.241 385.2ZM320.786 387.486L315.974 390.12L315.954 395.404L320.809 398.058L325.619 395.405V390.12L320.786 387.486Z" fill="#001423"/>
<path fill-rule="evenodd" clip-rule="evenodd" d="M313.843 388.899C314.145 388.35 314.834 388.15 315.383 388.451L321.351 391.728C321.713 391.927 321.939 392.308 321.939 392.722V399.349C321.939 399.975 321.431 400.483 320.805 400.483C320.179 400.483 319.671 399.975 319.671 399.349V393.393L314.291 390.439C313.743 390.137 313.542 389.448 313.843 388.899Z" fill="white"/>
<path d="M320.785 392.691V399.318L314.844 402.595V395.968L320.785 392.691Z" fill="#1792FF"/>
<path d="M314.845 395.968V402.595L308.852 399.318L308.878 392.691L314.845 395.968Z" fill="#A4D8FF"/>
<path d="M320.788 392.69L314.847 395.967L308.879 392.69L314.821 389.438L320.788 392.69Z" fill="white"/>
<path fill-rule="evenodd" clip-rule="evenodd" d="M314.272 388.445C314.61 388.26 315.02 388.259 315.359 388.444L321.327 391.696C321.691 391.895 321.918 392.277 321.918 392.692V399.32C321.918 399.733 321.693 400.113 321.332 400.312L315.39 403.589C315.05 403.777 314.639 403.777 314.299 403.591L308.305 400.314C307.94 400.115 307.713 399.731 307.715 399.315L307.741 392.687C307.743 392.275 307.968 391.896 308.33 391.697L314.272 388.445ZM314.818 390.731L310.006 393.365L309.985 398.649L314.84 401.303L319.65 398.65V393.365L314.818 390.731Z" fill="#001423"/>
<path fill-rule="evenodd" clip-rule="evenodd" d="M307.882 392.145C308.184 391.596 308.873 391.395 309.422 391.697L315.39 394.973C315.752 395.173 315.978 395.554 315.978 395.967V402.595C315.978 403.221 315.47 403.729 314.844 403.729C314.218 403.729 313.71 403.221 313.71 402.595V396.638L308.33 393.684C307.782 393.383 307.581 392.694 307.882 392.145Z" fill="white"/>
<path d="M314.821 395.935V402.563L308.879 405.84V399.212L314.821 395.935Z" fill="#1792FF"/>
<path d="M308.877 399.212V405.84L302.883 402.563L302.909 395.935L308.877 399.212Z" fill="#A4D8FF"/>
<path d="M314.816 395.937L308.874 399.214L302.906 395.937L308.848 392.685L314.816 395.937Z" fill="white"/>
<path fill-rule="evenodd" clip-rule="evenodd" d="M308.307 391.69C308.646 391.504 309.055 391.504 309.394 391.689L315.362 394.941C315.726 395.14 315.953 395.522 315.953 395.937V402.564C315.953 402.977 315.728 403.358 315.367 403.557L309.425 406.834C309.086 407.021 308.674 407.022 308.334 406.836L302.34 403.559C301.975 403.359 301.748 402.976 301.75 402.56L301.776 395.932C301.778 395.519 302.003 395.14 302.365 394.942L308.307 391.69ZM308.853 393.976L304.041 396.61L304.02 401.893L308.875 404.548L313.685 401.895V396.61L308.853 393.976Z" fill="#001423"/>
<path fill-rule="evenodd" clip-rule="evenodd" d="M301.918 395.39C302.219 394.841 302.908 394.64 303.457 394.942L309.425 398.219C309.787 398.418 310.013 398.799 310.013 399.212V405.84C310.013 406.466 309.505 406.974 308.879 406.974C308.253 406.974 307.745 406.466 307.745 405.84V399.883L302.366 396.929C301.817 396.628 301.616 395.939 301.918 395.39Z" fill="white"/>
<path d="M332.715 392.691V399.318L326.773 402.595V395.968L332.715 392.691Z" fill="#1792FF"/>
<path d="M326.771 395.968V402.595L320.777 399.318L320.803 392.691L326.771 395.968Z" fill="#A4D8FF"/>
<path d="M332.714 392.69L326.772 395.967L320.805 392.69L326.746 389.438L332.714 392.69Z" fill="white"/>
<path fill-rule="evenodd" clip-rule="evenodd" d="M326.202 388.445C326.54 388.26 326.95 388.259 327.289 388.444L333.256 391.696C333.621 391.895 333.847 392.277 333.847 392.692V399.32C333.847 399.733 333.623 400.113 333.261 400.312L327.32 403.589C326.98 403.777 326.568 403.777 326.228 403.591L320.234 400.314C319.869 400.115 319.643 399.731 319.645 399.315L319.671 392.687C319.672 392.275 319.898 391.896 320.26 391.697L326.202 388.445ZM326.747 390.731L321.935 393.365L321.915 398.649L326.77 401.303L331.58 398.65V393.365L326.747 390.731Z" fill="#001423"/>
<path fill-rule="evenodd" clip-rule="evenodd" d="M319.812 392.145C320.113 391.596 320.803 391.395 321.352 391.697L327.319 394.973C327.682 395.173 327.907 395.554 327.907 395.967V402.595C327.907 403.221 327.4 403.729 326.774 403.729C326.147 403.729 325.64 403.221 325.64 402.595V396.638L320.26 393.684C319.711 393.383 319.511 392.694 319.812 392.145Z" fill="white"/>
<path d="M326.746 395.936V402.564L320.805 405.84V399.213L326.746 395.936Z" fill="#1792FF"/>
<path d="M320.81 399.213V405.84L314.816 402.564L314.842 395.936L320.81 399.213Z" fill="#A4D8FF"/>
<path d="M326.749 395.937L320.808 399.214L314.84 395.937L320.782 392.685L326.749 395.937Z" fill="white"/>
<path fill-rule="evenodd" clip-rule="evenodd" d="M320.241 391.69C320.579 391.504 320.989 391.504 321.328 391.689L327.295 394.941C327.66 395.14 327.887 395.522 327.887 395.937V402.564C327.887 402.977 327.662 403.358 327.3 403.557L321.359 406.834C321.019 407.021 320.607 407.022 320.267 406.836L314.273 403.559C313.908 403.359 313.682 402.976 313.684 402.56L313.71 395.932C313.711 395.519 313.937 395.14 314.299 394.942L320.241 391.69ZM320.786 393.976L315.974 396.61L315.954 401.893L320.809 404.548L325.619 401.895V396.61L320.786 393.976Z" fill="#001423"/>
<path fill-rule="evenodd" clip-rule="evenodd" d="M313.843 395.39C314.145 394.841 314.834 394.64 315.383 394.942L321.351 398.219C321.713 398.418 321.939 398.799 321.939 399.212V405.84C321.939 406.466 321.431 406.974 320.805 406.974C320.179 406.974 319.671 406.466 319.671 405.84V399.883L314.291 396.929C313.743 396.628 313.542 395.939 313.843 395.39Z" fill="white"/>
<path d="M320.785 399.18V405.807L314.844 409.084V402.457L320.785 399.18Z" fill="#1792FF"/>
<path d="M314.845 402.457V409.084L308.852 405.807L308.878 399.18L314.845 402.457Z" fill="#A4D8FF"/>
<path d="M320.788 399.18L314.847 402.457L308.879 399.18L314.821 395.928L320.788 399.18Z" fill="white"/>
<path fill-rule="evenodd" clip-rule="evenodd" d="M314.272 394.935C314.61 394.75 315.02 394.749 315.359 394.934L321.327 398.186C321.691 398.385 321.918 398.767 321.918 399.182V405.809C321.918 406.222 321.693 406.603 321.332 406.802L315.39 410.079C315.05 410.266 314.639 410.267 314.299 410.081L308.305 406.804C307.94 406.605 307.713 406.221 307.715 405.805L307.741 399.177C307.743 398.765 307.968 398.385 308.33 398.187L314.272 394.935ZM314.818 397.221L310.006 399.855L309.985 405.139L314.84 407.793L319.65 405.14V399.855L314.818 397.221Z" fill="#001423"/>
<path fill-rule="evenodd" clip-rule="evenodd" d="M307.882 398.634C308.184 398.086 308.873 397.885 309.422 398.186L315.39 401.463C315.752 401.662 315.978 402.043 315.978 402.457V409.085C315.978 409.711 315.47 410.218 314.844 410.218C314.218 410.218 313.71 409.711 313.71 409.085V403.128L308.33 400.174C307.782 399.872 307.581 399.183 307.882 398.634Z" fill="white"/>
<path d="M320.785 379.54V386.167L314.844 389.444V382.817L320.785 379.54Z" fill="#1792FF"/>
<path d="M314.845 382.817V389.444L308.852 386.167L308.878 379.54L314.845 382.817Z" fill="#A4D8FF"/>
<path d="M320.788 379.541L314.847 382.818L308.879 379.541L314.821 376.289L320.788 379.541Z" fill="white"/>
<path fill-rule="evenodd" clip-rule="evenodd" d="M314.272 375.294C314.61 375.109 315.02 375.109 315.359 375.293L321.327 378.546C321.691 378.744 321.918 379.126 321.918 379.541V386.169C321.918 386.582 321.693 386.962 321.332 387.162L315.39 390.438C315.05 390.626 314.639 390.626 314.299 390.44L308.305 387.164C307.94 386.964 307.713 386.58 307.715 386.164L307.741 379.537C307.743 379.124 307.968 378.745 308.33 378.547L314.272 375.294ZM314.818 377.581L310.006 380.214L309.985 385.498L314.84 388.152L319.65 385.499V380.214L314.818 377.581Z" fill="#001423"/>
<path fill-rule="evenodd" clip-rule="evenodd" d="M307.882 378.996C308.184 378.447 308.873 378.247 309.422 378.548L315.39 381.825C315.752 382.024 315.978 382.405 315.978 382.819V389.446C315.978 390.072 315.47 390.58 314.844 390.58C314.218 390.58 313.71 390.072 313.71 389.446V383.489L308.33 380.535C307.782 380.234 307.581 379.545 307.882 378.996Z" fill="white"/>
<path d="M314.821 382.783V389.411L308.879 392.688V386.06L314.821 382.783Z" fill="#1792FF"/>
<path d="M308.877 386.06V392.688L302.883 389.411L302.909 382.783L308.877 386.06Z" fill="#A4D8FF"/>
<path d="M314.823 382.784L308.882 386.061L302.914 382.784L308.856 379.532L314.823 382.784Z" fill="white"/>
<path fill-rule="evenodd" clip-rule="evenodd" d="M308.307 378.538C308.646 378.352 309.055 378.352 309.394 378.537L315.362 381.789C315.726 381.988 315.953 382.369 315.953 382.784V389.412C315.953 389.825 315.728 390.205 315.367 390.405L309.425 393.682C309.086 393.869 308.674 393.87 308.334 393.684L302.34 390.407C301.975 390.207 301.748 389.824 301.75 389.408L301.776 382.78C301.778 382.367 302.003 381.988 302.365 381.79L308.307 378.538ZM308.853 380.824L304.041 383.458L304.02 388.741L308.875 391.396L313.685 388.743V383.458L308.853 380.824Z" fill="#001423"/>
<path fill-rule="evenodd" clip-rule="evenodd" d="M301.918 382.238C302.219 381.689 302.908 381.488 303.457 381.79L309.425 385.067C309.787 385.266 310.013 385.647 310.013 386.061V392.688C310.013 393.314 309.505 393.822 308.879 393.822C308.253 393.822 307.745 393.314 307.745 392.688V386.731L302.366 383.777C301.817 383.476 301.616 382.787 301.918 382.238Z" fill="white"/>
<path d="M308.86 386.029V392.657L302.918 395.934V389.306L308.86 386.029Z" fill="#1792FF"/>
<path d="M302.916 389.306V395.934L296.922 392.657L296.948 386.029L302.916 389.306Z" fill="#A4D8FF"/>
<path d="M308.863 386.028L302.921 389.305L296.953 386.028L302.895 382.776L308.863 386.028Z" fill="white"/>
<path fill-rule="evenodd" clip-rule="evenodd" d="M302.346 381.782C302.685 381.596 303.094 381.596 303.433 381.781L309.401 385.033C309.765 385.231 309.992 385.613 309.992 386.028V392.656C309.992 393.069 309.767 393.449 309.406 393.649L303.464 396.926C303.125 397.113 302.713 397.114 302.373 396.928L296.379 393.651C296.014 393.451 295.787 393.068 295.789 392.652L295.815 386.024C295.817 385.611 296.042 385.232 296.405 385.034L302.346 381.782ZM302.892 384.068L298.08 386.702L298.059 391.985L302.914 394.64L307.725 391.987V386.702L302.892 384.068Z" fill="#001423"/>
<path fill-rule="evenodd" clip-rule="evenodd" d="M295.953 385.482C296.254 384.933 296.943 384.733 297.492 385.034L303.46 388.311C303.823 388.51 304.048 388.891 304.048 389.305V395.933C304.048 396.559 303.54 397.066 302.914 397.066C302.288 397.066 301.78 396.559 301.78 395.933V389.976L296.401 387.022C295.852 386.72 295.651 386.031 295.953 385.482Z" fill="white"/>
<path d="M326.746 382.782V389.409L320.805 392.686V386.059L326.746 382.782Z" fill="#1792FF"/>
<path d="M320.81 386.059V392.686L314.816 389.409L314.842 382.782L320.81 386.059Z" fill="#A4D8FF"/>
<path d="M326.749 382.783L320.808 386.06L314.84 382.783L320.782 379.531L326.749 382.783Z" fill="white"/>
<path fill-rule="evenodd" clip-rule="evenodd" d="M320.241 378.538C320.579 378.352 320.989 378.352 321.328 378.537L327.295 381.789C327.66 381.988 327.887 382.369 327.887 382.784V389.412C327.887 389.825 327.662 390.205 327.3 390.405L321.359 393.682C321.019 393.869 320.607 393.87 320.267 393.684L314.273 390.407C313.908 390.207 313.682 389.824 313.684 389.408L313.71 382.78C313.711 382.367 313.937 381.988 314.299 381.79L320.241 378.538ZM320.786 380.824L315.974 383.458L315.954 388.741L320.809 391.396L325.619 388.743V383.458L320.786 380.824Z" fill="#001423"/>
<path fill-rule="evenodd" clip-rule="evenodd" d="M313.843 382.236C314.145 381.687 314.834 381.487 315.383 381.788L321.351 385.065C321.713 385.264 321.939 385.645 321.939 386.059V392.687C321.939 393.313 321.431 393.82 320.805 393.82C320.179 393.82 319.671 393.313 319.671 392.687V386.73L314.291 383.776C313.743 383.474 313.542 382.785 313.843 382.236Z" fill="white"/>
<path d="M320.785 386.029V392.657L314.844 395.934V389.306L320.785 386.029Z" fill="#1792FF"/>
<path d="M314.845 389.306V395.934L308.852 392.657L308.878 386.029L314.845 389.306Z" fill="#A4D8FF"/>
<path d="M320.788 386.028L314.847 389.305L308.879 386.028L314.821 382.776L320.788 386.028Z" fill="white"/>
<path fill-rule="evenodd" clip-rule="evenodd" d="M314.272 381.782C314.61 381.596 315.02 381.596 315.359 381.781L321.327 385.033C321.691 385.231 321.918 385.613 321.918 386.028V392.656C321.918 393.069 321.693 393.449 321.332 393.649L315.39 396.926C315.05 397.113 314.639 397.114 314.299 396.928L308.305 393.651C307.94 393.451 307.713 393.068 307.715 392.652L307.741 386.024C307.743 385.611 307.968 385.232 308.33 385.034L314.272 381.782ZM314.818 384.068L310.006 386.702L309.985 391.985L314.84 394.64L319.65 391.987V386.702L314.818 384.068Z" fill="#001423"/>
<path fill-rule="evenodd" clip-rule="evenodd" d="M307.882 385.482C308.184 384.933 308.873 384.733 309.422 385.034L315.39 388.311C315.752 388.51 315.978 388.891 315.978 389.305V395.933C315.978 396.559 315.47 397.066 314.844 397.066C314.218 397.066 313.71 396.559 313.71 395.933V389.976L308.33 387.022C307.782 386.72 307.581 386.031 307.882 385.482Z" fill="white"/>
<path d="M314.821 389.275V395.903L308.879 399.18V392.552L314.821 389.275Z" fill="#1792FF"/>
<path d="M308.877 392.552V399.18L302.883 395.903L302.909 389.275L308.877 392.552Z" fill="#A4D8FF"/>
<path d="M314.816 389.275L308.874 392.552L302.906 389.275L308.848 386.023L314.816 389.275Z" fill="white"/>
<path fill-rule="evenodd" clip-rule="evenodd" d="M308.307 385.03C308.646 384.845 309.055 384.844 309.394 385.029L315.362 388.281C315.726 388.48 315.953 388.862 315.953 389.277V395.904C315.953 396.317 315.728 396.698 315.367 396.897L309.425 400.174C309.085 400.361 308.674 400.362 308.334 400.176L302.34 396.899C301.975 396.7 301.748 396.316 301.75 395.9L301.776 389.272C301.778 388.859 302.003 388.48 302.365 388.282L308.307 385.03ZM308.853 387.316L304.041 389.95L304.02 395.234L308.875 397.888L313.685 395.235V389.95L308.853 387.316Z" fill="#001423"/>
<path fill-rule="evenodd" clip-rule="evenodd" d="M301.918 388.729C302.219 388.18 302.908 387.98 303.457 388.281L309.425 391.558C309.787 391.757 310.013 392.138 310.013 392.552V399.179C310.013 399.806 309.505 400.313 308.879 400.313C308.253 400.313 307.745 399.806 307.745 399.179V393.223L302.366 390.269C301.817 389.967 301.616 389.278 301.918 388.729Z" fill="white"/>
<path d="M332.715 386.029V392.657L326.773 395.934V389.306L332.715 386.029Z" fill="#1792FF"/>
<path d="M326.771 389.306V395.934L320.777 392.657L320.803 386.029L326.771 389.306Z" fill="#A4D8FF"/>
<path d="M332.714 386.028L326.772 389.305L320.805 386.028L326.746 382.776L332.714 386.028Z" fill="white"/>
<path fill-rule="evenodd" clip-rule="evenodd" d="M326.202 381.782C326.54 381.596 326.95 381.596 327.289 381.781L333.256 385.033C333.621 385.231 333.847 385.613 333.847 386.028V392.656C333.847 393.069 333.623 393.449 333.261 393.649L327.32 396.926C326.98 397.113 326.568 397.114 326.228 396.928L320.234 393.651C319.869 393.451 319.643 393.068 319.645 392.652L319.671 386.024C319.672 385.611 319.898 385.232 320.26 385.034L326.202 381.782ZM326.747 384.068L321.935 386.702L321.915 391.985L326.77 394.64L331.58 391.987V386.702L326.747 384.068Z" fill="#001423"/>
<path fill-rule="evenodd" clip-rule="evenodd" d="M319.812 385.482C320.113 384.933 320.803 384.733 321.352 385.034L327.319 388.311C327.682 388.51 327.907 388.891 327.907 389.305V395.933C327.907 396.559 327.4 397.066 326.774 397.066C326.147 397.066 325.64 396.559 325.64 395.933V389.976L320.26 387.022C319.711 386.72 319.511 386.031 319.812 385.482Z" fill="white"/>
<path d="M326.746 389.275V395.903L320.805 399.18V392.552L326.746 389.275Z" fill="#1792FF"/>
<path d="M320.81 392.552V399.18L314.816 395.903L314.842 389.275L320.81 392.552Z" fill="#A4D8FF"/>
<path d="M326.745 389.275L320.804 392.552L314.836 389.275L320.778 386.023L326.745 389.275Z" fill="white"/>
<path fill-rule="evenodd" clip-rule="evenodd" d="M320.241 385.03C320.579 384.844 320.989 384.844 321.328 385.029L327.295 388.281C327.66 388.479 327.887 388.861 327.887 389.276V395.904C327.887 396.317 327.662 396.697 327.3 396.897L321.359 400.174C321.019 400.361 320.607 400.362 320.267 400.176L314.273 396.899C313.908 396.699 313.682 396.316 313.684 395.9L313.71 389.272C313.711 388.859 313.937 388.48 314.299 388.282L320.241 385.03ZM320.786 387.316L315.974 389.95L315.954 395.233L320.809 397.888L325.619 395.235V389.95L320.786 387.316Z" fill="#001423"/>
<path fill-rule="evenodd" clip-rule="evenodd" d="M313.843 388.729C314.145 388.18 314.834 387.98 315.383 388.281L321.351 391.558C321.713 391.757 321.939 392.138 321.939 392.552V399.179C321.939 399.806 321.431 400.313 320.805 400.313C320.179 400.313 319.671 399.806 319.671 399.179V393.223L314.291 390.269C313.743 389.967 313.542 389.278 313.843 388.729Z" fill="white"/>
<path d="M320.785 369.119V375.746L314.844 379.023V372.396L320.785 369.119Z" fill="#1792FF"/>
<path d="M314.845 372.396V379.023L308.852 375.746L308.878 369.119L314.845 372.396Z" fill="#A4D8FF"/>
<path d="M320.788 369.119L314.847 372.396L308.879 369.119L314.821 365.866L320.788 369.119Z" fill="white"/>
<path fill-rule="evenodd" clip-rule="evenodd" d="M314.272 364.874C314.61 364.689 315.02 364.688 315.359 364.873L321.327 368.125C321.691 368.324 321.918 368.706 321.918 369.121V375.749C321.918 376.162 321.693 376.542 321.332 376.741L315.39 380.018C315.05 380.205 314.639 380.206 314.299 380.02L308.305 376.743C307.94 376.544 307.713 376.16 307.715 375.744L307.741 369.116C307.743 368.704 307.968 368.325 308.33 368.126L314.272 364.874ZM314.818 367.16L310.006 369.794L309.985 375.078L314.84 377.732L319.65 375.079V369.794L314.818 367.16Z" fill="#001423"/>
<path fill-rule="evenodd" clip-rule="evenodd" d="M307.882 368.573C308.184 368.024 308.873 367.824 309.422 368.125L315.39 371.402C315.752 371.601 315.978 371.982 315.978 372.396V379.023C315.978 379.65 315.47 380.157 314.844 380.157C314.218 380.157 313.71 379.65 313.71 379.023V373.067L308.33 370.113C307.782 369.811 307.581 369.122 307.882 368.573Z" fill="white"/>
</g>
<path d="M80.1808 335.603C65.0112 303.174 75.2984 247.04 143.378 235.007C211.458 222.974 281.493 187.131 333.424 138.637C385.354 90.1419 446.105 102.677 470.708 142.437C481.924 160.56 504.876 208.503 457.431 269.809C428.393 307.331 375.455 345.411 280.168 369.977C184.881 394.542 95.3504 368.033 80.1808 335.603Z" fill="#D5EBFF"/>
<path opacity="0.1" d="M145.644 210.467C195.39 210.467 235.718 172.344 235.718 125.316C235.718 78.2881 195.39 40.1645 145.644 40.1645C95.8977 40.1645 55.5704 78.2881 55.5704 125.316C55.5704 172.344 95.8977 210.467 145.644 210.467Z" fill="#002445"/>
<path d="M349.72 137.235L301.801 164.899L349.72 192.678L397.524 164.899L349.72 137.235Z" fill="white"/>
<path d="M158.269 137.235L110.465 164.899L158.269 192.678L206.188 164.899L158.269 137.235Z" fill="white"/>
<path d="M206.191 275.323V330.303L253.995 302.639V247.659L206.191 275.323Z" fill="#1792FF"/>
<path d="M206.193 165.247V220.227L158.273 192.564V137.583L206.193 165.247Z" fill="#A4D8FF"/>
<path d="M206.193 220.227V275.092L158.273 247.544V192.563L206.193 220.227Z" fill="#A4D8FF"/>
<path d="M158.269 192.564V247.544L110.465 219.88V164.9L158.269 192.564Z" fill="#A4D8FF"/>
<path d="M253.995 247.66V302.64L206.191 275.092V220.112L253.995 247.66Z" fill="#A4D8FF"/>
<path d="M301.8 165.016V219.996L253.996 192.332V137.352L301.8 165.016Z" fill="#A4D8FF"/>
<path d="M206.193 109.688V164.668L158.273 137.004V82.0239L206.193 109.688Z" fill="#A4D8FF"/>
<path d="M301.8 275.091V330.072L253.996 302.524V247.543L301.8 275.091Z" fill="#A4D8FF"/>
<path d="M206.193 275.091V330.072L158.273 302.524V247.543L206.193 275.091Z" fill="#A4D8FF"/>
<path d="M301.797 165.016V219.996L349.716 192.332V137.352L301.797 165.016Z" fill="#1792FF"/>
<path d="M301.797 109.688V164.668L349.716 137.004V82.0242L301.797 109.688Z" fill="#1792FF"/>
<path d="M206.191 165.016V219.996L253.995 192.332V137.352L206.191 165.016Z" fill="#1792FF"/>
<path d="M301.797 219.996V274.976L349.716 247.312V192.332L301.797 219.996Z" fill="#1792FF"/>
<path d="M349.715 192.564V247.544L397.519 219.88V164.9L349.715 192.564Z" fill="#1792FF"/>
<path d="M253.996 247.544V302.524L301.8 274.976V219.996L253.996 247.544Z" fill="#1792FF"/>
<path d="M301.797 274.976V329.956L349.716 302.292V247.312L301.797 274.976Z" fill="#1792FF"/>
<path d="M206.193 109.803L158.273 137.467L206.193 165.246L253.997 137.467L206.193 109.803Z" fill="white"/>
<path d="M253.995 82.0242L206.191 109.804L253.995 137.467L301.799 109.804L253.995 82.0242Z" fill="white"/>
<path d="M253.995 192.332L206.191 219.996L253.995 247.66L301.799 219.996L253.995 192.332Z" fill="white"/>
<path d="M301.8 54.3604L253.996 82.0241L301.8 109.804L349.719 82.0241L301.8 54.3604Z" fill="white"/>
<path d="M206.193 54.3604L158.273 82.0241L206.193 109.804L253.997 82.0241L206.193 54.3604Z" fill="white"/>
<path d="M301.8 109.456L253.996 137.236L301.8 164.899L349.719 137.236L301.8 109.456Z" fill="white"/>
<path d="M158.269 82.0241V137.236L110.465 164.899V219.88L158.269 247.543V302.524L206.188 330.072L253.992 302.524L301.796 330.072L349.716 302.524V247.543L397.519 219.88V164.899L349.716 137.236V82.0241L301.796 54.3604L253.992 82.0241L206.188 54.3604L158.269 82.0241Z" stroke="#001423" stroke-width="6" stroke-miterlimit="10" stroke-linejoin="round"/>
<path d="M110.465 164.9L158.269 192.911" stroke="white" stroke-width="6" stroke-miterlimit="10" stroke-linecap="round" stroke-linejoin="round"/>
<path d="M206.191 275.323V330.072" stroke="white" stroke-width="6" stroke-miterlimit="10" stroke-linecap="round" stroke-linejoin="round"/>
<path d="M206.191 220.227V275.323" stroke="#001423" stroke-width="6" stroke-miterlimit="10" stroke-linejoin="round"/>
<path d="M158.273 137.235V247.543" stroke="#001423" stroke-width="6" stroke-miterlimit="10" stroke-linejoin="round"/>
<path d="M301.801 275.092V219.996" stroke="#001423" stroke-width="6" stroke-miterlimit="10" stroke-linejoin="round"/>
<path d="M301.801 330.072V275.092" stroke="white" stroke-width="6" stroke-miterlimit="10" stroke-linecap="round" stroke-linejoin="round"/>
<path d="M397.527 164.668L349.723 192.679" stroke="white" stroke-width="6" stroke-miterlimit="10" stroke-linecap="round" stroke-linejoin="round"/>
<path d="M349.72 82.0242L301.801 110.035" stroke="white" stroke-width="6" stroke-miterlimit="10" stroke-linecap="round" stroke-linejoin="round"/>
<path d="M158.273 82.0242L206.193 110.035" stroke="white" stroke-width="6" stroke-miterlimit="10" stroke-linecap="round" stroke-linejoin="round"/>
<path d="M349.723 248.817V138.625" stroke="#001423" stroke-width="6" stroke-miterlimit="10" stroke-linejoin="round"/>
<path d="M158.391 192.563L206.194 220.111" stroke="#001423" stroke-width="6" stroke-miterlimit="10" stroke-linejoin="round"/>
<path d="M158.273 247.543L253.997 302.987" stroke="#001423" stroke-width="6" stroke-miterlimit="10" stroke-linejoin="round"/>
<path d="M348.791 247.543L253.184 302.987" stroke="#001423" stroke-width="6" stroke-miterlimit="10" stroke-linejoin="round"/>
<path d="M349.72 192.679L301.801 219.995" stroke="#001423" stroke-width="6" stroke-miterlimit="10" stroke-linejoin="round"/>
<path d="M303.42 110.151L253.996 137.352" stroke="#001423" stroke-width="6" stroke-miterlimit="10" stroke-linejoin="round"/>
<path d="M253.996 82.0242L352.845 139.088" stroke="#001423" stroke-width="6" stroke-miterlimit="10" stroke-linejoin="round"/>
<path d="M300.989 219.416L253.995 191.868V137.351L206.191 109.688" stroke="#001423" stroke-width="6" stroke-miterlimit="10" stroke-linejoin="round"/>
<path d="M253.997 81.9087L158.273 137.236" stroke="#001423" stroke-width="6" stroke-miterlimit="10" stroke-linejoin="round"/>
<path d="M253.995 191.637L205.844 219.532" stroke="#001423" stroke-width="6" stroke-miterlimit="10" stroke-linejoin="round"/>
<path d="M158.273 137.235L206.193 165.246V220.111L253.997 247.659V302.523" stroke="white" stroke-width="6" stroke-miterlimit="10" stroke-linecap="round" stroke-linejoin="round"/>
<path d="M349.719 137.235L301.8 165.246V220.111L253.996 247.658" stroke="white" stroke-width="6" stroke-miterlimit="10" stroke-linecap="round" stroke-linejoin="round"/>
<path d="M206.191 165.247L253.995 137.468L301.799 165.247" stroke="white" stroke-width="6" stroke-miterlimit="10" stroke-linecap="round" stroke-linejoin="round"/>
<g filter="url(#filter1_d)">
<path d="M464.987 329.974C500.326 329.974 528.974 301.326 528.974 265.987C528.974 230.648 500.326 202 464.987 202C429.648 202 401 230.648 401 265.987C401 301.326 429.648 329.974 464.987 329.974Z" fill="#F9FCFF"/>
<path d="M466.108 288.14L471.739 285.04L471.713 292.61L466.082 295.698L466.108 288.14Z" fill="#1792FF"/>
<path d="M449.656 271.576L455.287 268.489L474.295 278.863L468.665 281.951L449.656 271.576Z" fill="white"/>
<path d="M456.69 252.681L462.321 249.593L462.295 257.152L456.664 260.252L456.69 252.681Z" fill="#1792FF"/>
<path d="M462.344 242.024L455.381 238.232L449.75 241.32L456.713 245.124L459.248 246.507L464.891 243.419L462.344 242.024Z" fill="white"/>
<path d="M474.34 263.735L462.295 257.152L456.664 260.252L468.709 266.823L475.672 270.627L481.303 267.527L474.34 263.735Z" fill="white"/>
<path d="M475.671 270.626L475.658 278.197L475.632 285.755L475.605 293.326L481.236 290.226L481.262 282.655L481.288 275.097L481.301 267.526L475.671 270.626Z" fill="#1792FF"/>
<path d="M466.233 242.738L471.864 239.651L471.838 247.209L466.207 250.309L466.233 242.738Z" fill="#1792FF"/>
<path d="M459.273 238.947L464.904 235.847L471.867 239.651L466.237 242.739L459.273 238.947Z" fill="white"/>
<path d="M466.211 250.31L471.842 247.21L481.352 252.397L475.722 255.497L466.211 250.31Z" fill="white"/>
<path d="M466.237 242.738L466.211 250.309L475.722 255.496L475.696 263.055L456.687 252.68L456.661 260.251L475.67 270.626L475.604 293.326L466.107 288.139L466.081 295.697L459.117 291.893L459.144 284.335L449.633 279.147L449.659 271.577L468.667 281.951L468.693 274.392L456.648 267.822L449.685 264.018L449.75 241.318L459.248 246.505L459.274 238.947L466.237 242.738Z" fill="#A4D8FF"/>
<path d="M475.721 255.496L481.352 252.396L481.326 259.967L475.695 263.055L475.721 255.496Z" fill="#1792FF"/>
<path fill-rule="evenodd" clip-rule="evenodd" d="M464.251 234.654C464.658 234.429 465.152 234.429 465.56 234.651L472.523 238.455C472.961 238.695 473.233 239.155 473.231 239.654L473.208 246.402L482.007 251.201C482.445 251.44 482.717 251.9 482.716 252.4L482.69 259.958C482.688 260.452 482.418 260.907 481.985 261.145L477.22 263.768L481.955 266.355C482.393 266.594 482.665 267.054 482.663 267.554L482.585 290.241C482.583 290.736 482.313 291.192 481.879 291.43L476.248 294.517C475.841 294.74 475.349 294.741 474.942 294.519L472.83 293.366C472.711 293.543 472.55 293.693 472.357 293.8L466.726 296.9C466.319 297.124 465.826 297.125 465.418 296.902L458.455 293.098C458.016 292.859 457.745 292.399 457.746 291.899L457.77 285.152L448.971 280.353C448.532 280.114 448.26 279.653 448.262 279.154L448.288 271.583C448.29 271.089 448.559 270.634 448.992 270.396L453.757 267.772L449.022 265.186C448.584 264.947 448.312 264.487 448.314 263.987L448.392 241.312C448.394 240.817 448.665 240.362 449.099 240.124L454.729 237.036C455.136 236.813 455.628 236.813 456.035 237.035L458.147 238.187C458.266 238.01 458.427 237.86 458.621 237.754L464.251 234.654ZM460.637 239.749V240.353C460.637 240.833 460.384 241.278 459.971 241.523C459.558 241.768 459.047 241.778 458.625 241.548L455.385 239.78L451.111 242.124L451.038 263.186L457.289 266.602L469.334 273.172C469.771 273.41 470.043 273.869 470.043 274.366V275.799C470.043 276.279 469.79 276.724 469.377 276.969C468.964 277.214 468.453 277.223 468.031 276.993L455.282 270.039L451.006 272.393L450.986 278.352L459.784 283.151C460.223 283.39 460.495 283.851 460.493 284.35L460.47 291.098L466.067 294.156L470.34 291.804V291.2C470.34 290.72 470.593 290.275 471.006 290.03C471.419 289.785 471.931 289.776 472.352 290.006L475.592 291.774L479.867 289.43L479.94 268.354L461.641 258.343C461.201 258.102 460.929 257.639 460.934 257.137L460.947 255.729C460.952 255.251 461.207 254.811 461.619 254.569C462.031 254.327 462.54 254.319 462.96 254.548L475.696 261.502L479.971 259.148L479.992 253.201L471.193 248.402C470.754 248.163 470.482 247.703 470.484 247.203L470.507 240.455L464.91 237.397L460.637 239.749Z" fill="#001423"/>
<path fill-rule="evenodd" clip-rule="evenodd" d="M461.653 256.938L456.035 253.875L457.338 251.486L462.955 254.549L461.653 256.938Z" fill="#001423"/>
<path fill-rule="evenodd" clip-rule="evenodd" d="M457.895 246.499L457.921 240.336L460.642 240.348L460.616 246.511L457.895 246.499Z" fill="#001423"/>
<path fill-rule="evenodd" clip-rule="evenodd" d="M471.065 292.394L465.461 289.331L466.766 286.944L472.37 290.007L471.065 292.394Z" fill="#001423"/>
<path fill-rule="evenodd" clip-rule="evenodd" d="M470.043 275.803L470.03 281.953L467.309 281.947L467.322 275.797L470.043 275.803Z" fill="#001423"/>
<path d="M449.758 241.318L459.255 246.506" stroke="white" stroke-linecap="round" stroke-linejoin="round"/>
<path d="M459.277 238.946L466.241 242.737L466.214 250.308L475.725 255.495L475.699 263.054" stroke="white" stroke-linecap="round" stroke-linejoin="round"/>
<path d="M471.869 239.65L466.238 242.737" stroke="white" stroke-linecap="round" stroke-linejoin="round"/>
<path d="M471.846 247.209L466.215 250.309" stroke="white" stroke-linecap="round" stroke-linejoin="round"/>
<path d="M481.357 252.395L475.727 255.495" stroke="white" stroke-linecap="round" stroke-linejoin="round"/>
<path d="M456.694 252.679L456.668 260.25L462.299 257.15" stroke="white" stroke-linecap="round" stroke-linejoin="round"/>
<path d="M456.668 260.251L475.676 270.625L475.611 293.325" stroke="white" stroke-linecap="round" stroke-linejoin="round"/>
<path d="M481.306 267.526L475.676 270.626" stroke="white" stroke-linecap="round" stroke-linejoin="round"/>
<path d="M466.082 295.696L466.108 288.138" stroke="white" stroke-linecap="round" stroke-linejoin="round"/>
<path d="M468.672 281.951L449.664 271.577" stroke="white" stroke-linecap="round" stroke-linejoin="round"/>
</g>
<path d="M98.8842 397.998C120.631 397.998 138.261 380.369 138.261 358.622C138.261 336.875 120.631 319.246 98.8842 319.246C77.1372 319.246 59.5078 336.875 59.5078 358.622C59.5078 380.369 77.1372 397.998 98.8842 397.998Z" fill="#F9FCFF"/>
<path d="M107.966 357.368L104.175 355.347L100.363 356.956L107.958 361.218L107.966 357.368Z" fill="white"/>
<path d="M105.764 354.857L101.986 352.836L98.1719 354.445L105.764 358.707V354.857Z" fill="white"/>
<path d="M103.72 352.641L99.9285 350.62L96.1172 352.229L103.712 356.491L103.72 352.641Z" fill="white"/>
<path d="M102.864 350.934L99.073 348.919L95.2617 350.529L102.857 354.79L102.864 350.934Z" fill="white"/>
<path d="M95.2783 341.804V342.983L94.3109 342.452V344.944C94.3109 345.125 93.3789 344.432 93.3789 344.432V346.597" fill="#1792FF"/>
<path d="M93.3734 346.595V350.502L85.5922 346.234V347.548L84.6602 347.036V348.226V353.076L85.5922 353.588V353.633V358.528L86.4965 359.025V362.708L87.5192 363.267V364.491L88.5143 365.036V366.26L102.014 373.678V372.488L103.009 373.035L103.082 358.38L102.041 357.811V356.537L100.104 355.475V354.285L99.2125 353.799V352.576L98.1747 352.014V350.79V343.41L95.2703 341.817" fill="#A4D8FF"/>
<path d="M103.149 357.548L108.764 360.404L108.741 377.398L103.094 374.303L103.149 357.548Z" fill="#A4D8FF"/>
<path fill-rule="evenodd" clip-rule="evenodd" d="M84.7768 345.892C85.003 345.479 85.5213 345.327 85.9344 345.553L93.7182 349.815C94.1313 350.041 94.2829 350.559 94.0567 350.972C93.8305 351.385 93.3122 351.537 92.8991 351.311L85.1153 347.049C84.7022 346.823 84.5506 346.305 84.7768 345.892Z" fill="white"/>
<path fill-rule="evenodd" clip-rule="evenodd" d="M103.149 356.695C103.62 356.697 104 357.081 103.997 357.552L103.924 373.129C103.922 373.6 103.539 373.98 103.068 373.977C102.597 373.975 102.217 373.592 102.219 373.121L102.292 357.544C102.294 357.073 102.678 356.693 103.149 356.695Z" fill="white"/>
<path fill-rule="evenodd" clip-rule="evenodd" d="M85.5271 345.448C85.9981 345.448 86.3799 345.83 86.3799 346.301V347.615C86.3799 347.917 86.2208 348.196 85.9614 348.349C85.8041 348.442 85.6241 348.481 85.4479 348.464V352.639L85.9376 352.908C86.2104 353.057 86.3799 353.344 86.3799 353.655V358.072L86.8425 358.326C87.115 358.476 87.2842 358.763 87.2842 359.074V362.251L87.8634 362.568C88.1369 362.717 88.307 363.004 88.307 363.316V364.034L88.8589 364.337C89.1321 364.487 89.302 364.773 89.302 365.085V365.794L101.158 372.297C101.216 372.093 101.348 371.916 101.533 371.802C101.786 371.647 102.101 371.635 102.366 371.769L103.441 372.317C103.861 372.53 104.028 373.044 103.814 373.464C103.625 373.836 103.2 374.009 102.813 373.895C102.765 374.126 102.621 374.33 102.413 374.453C102.154 374.607 101.833 374.612 101.569 374.467L88.039 367.047C87.766 366.897 87.5963 366.61 87.5963 366.299V365.59L87.0443 365.288C86.7711 365.138 86.6013 364.851 86.6013 364.54V363.822L86.0221 363.505C85.7486 363.355 85.5786 363.068 85.5786 362.756V359.578L85.1159 359.323C84.8435 359.173 84.6742 358.887 84.6742 358.576V354.16L84.1845 353.891C83.9117 353.741 83.7422 353.454 83.7422 353.143V347.103C83.7422 346.802 83.9013 346.523 84.1607 346.369C84.3184 346.276 84.4989 346.238 84.6755 346.254C84.6998 345.805 85.0717 345.448 85.5271 345.448Z" fill="#001423"/>
<path d="M112.873 358.488L108.812 360.392V377.44L112.873 375.321V358.488Z" fill="#1792FF"/>
<path fill-rule="evenodd" clip-rule="evenodd" d="M113.61 358.125C113.81 358.551 113.626 359.059 113.2 359.259L109.628 360.934V377.44C109.628 377.911 109.246 378.292 108.775 378.292C108.304 378.292 107.922 377.911 107.922 377.44V360.391C107.922 360.061 108.113 359.76 108.413 359.619L112.476 357.715C112.902 357.515 113.41 357.698 113.61 358.125Z" fill="white"/>
<path fill-rule="evenodd" clip-rule="evenodd" d="M112.846 357.635C113.317 357.635 113.699 358.016 113.699 358.487V375.326C113.699 375.644 113.522 375.935 113.24 376.082L109.177 378.201C108.759 378.419 108.244 378.257 108.027 377.839C107.809 377.422 107.971 376.906 108.388 376.689L111.993 374.809V358.487C111.993 358.016 112.375 357.635 112.846 357.635Z" fill="#001423"/>
<path d="M93.3783 346.656L89.5872 344.634L85.7734 346.244L93.3683 350.505L93.3783 346.656Z" fill="white"/>
<path d="M103.305 357.39L107.003 355.585L112.837 358.442L108.786 360.346L103.305 357.39Z" fill="white"/>
<path d="M95.2852 341.804L98.9957 339.926L101.986 341.675L98.1871 343.397L95.2852 341.804Z" fill="white"/>
<path d="M101.99 341.676L98.1914 343.397V352.008L101.99 350.287V341.676Z" fill="#1792FF"/>
<path d="M102.943 350.919L99.1445 352.64V353.89L102.943 352.169V350.919Z" fill="#1792FF"/>
<path d="M103.912 352.569L100.113 354.29V355.54L103.912 353.819V352.569Z" fill="#1792FF"/>
<path d="M105.861 354.826L102.062 356.538V357.788L105.861 356.066V354.826Z" fill="#1792FF"/>
<path fill-rule="evenodd" clip-rule="evenodd" d="M98.7138 339.313C98.9582 339.202 99.2406 339.213 99.4759 339.342L102.38 340.934C102.653 341.084 102.823 341.371 102.823 341.682V349.769L103.421 350.098C103.694 350.248 103.863 350.534 103.863 350.845V351.563L104.317 351.811C104.59 351.961 104.76 352.248 104.76 352.56V353.245L106.252 354.064C106.525 354.214 106.695 354.5 106.695 354.812V356.081C106.695 356.552 106.313 356.933 105.842 356.933C105.371 356.933 104.989 356.552 104.989 356.081V355.316L103.497 354.497C103.224 354.348 103.055 354.061 103.055 353.75V353.065L102.601 352.817C102.328 352.668 102.158 352.381 102.158 352.069V351.35L101.56 351.022C101.287 350.872 101.117 350.585 101.117 350.274V342.187L99.0295 341.042L95.6191 342.587C95.1901 342.782 94.6847 342.592 94.4903 342.163C94.2959 341.734 94.4861 341.228 94.9151 341.034L98.7138 339.313Z" fill="#001423"/>
<path fill-rule="evenodd" clip-rule="evenodd" d="M89.0372 343.74C89.2815 343.63 89.5634 343.64 89.7985 343.769L93.7735 345.948C94.1865 346.174 94.3379 346.692 94.1115 347.105C93.8852 347.518 93.3668 347.67 92.9538 347.443L89.3521 345.47L85.9388 347.013C85.5096 347.207 85.0044 347.017 84.8103 346.587C84.6163 346.158 84.8069 345.653 85.236 345.459L89.0372 343.74Z" fill="#001423"/>
<path fill-rule="evenodd" clip-rule="evenodd" d="M106.649 354.856C106.881 354.751 107.148 354.755 107.377 354.867L113.211 357.724C113.634 357.931 113.809 358.442 113.602 358.865C113.394 359.288 112.884 359.463 112.461 359.255L106.988 356.575L106.162 356.95C105.733 357.144 105.228 356.954 105.033 356.525C104.839 356.096 105.029 355.591 105.458 355.396L106.649 354.856Z" fill="#001423"/>
<path d="M95.3341 342.989L95.4424 341.916L94.3164 342.451L95.3341 342.989Z" fill="white"/>
<path fill-rule="evenodd" clip-rule="evenodd" d="M95.217 341.011C95.688 341.011 96.0699 341.393 96.0699 341.864V343.042C96.0699 343.344 95.9108 343.623 95.6514 343.776C95.4836 343.876 95.2899 343.913 95.1026 343.887V345.004C95.1026 345.21 95.0246 345.516 94.7342 345.723C94.5062 345.885 94.2736 345.891 94.1705 345.886V350.658C94.1705 351.129 93.7887 351.511 93.3177 351.511C92.8467 351.511 92.4648 351.129 92.4648 350.658V344.492C92.4648 344.17 92.6466 343.875 92.9346 343.73C93.0803 343.657 93.2406 343.628 93.3969 343.643V342.511C93.3969 342.21 93.556 341.931 93.8153 341.777C93.9898 341.674 94.1922 341.638 94.3864 341.67C94.4743 341.292 94.8128 341.011 95.217 341.011Z" fill="#001423"/>
<path fill-rule="evenodd" clip-rule="evenodd" d="M94.941 343.835C95.1195 344.271 94.9108 344.769 94.475 344.947L93.7193 345.257C93.2834 345.435 92.7853 345.227 92.6068 344.791C92.4283 344.355 92.6369 343.857 93.0728 343.678L93.8285 343.369C94.2644 343.19 94.7625 343.399 94.941 343.835Z" fill="#001423"/>
<path fill-rule="evenodd" clip-rule="evenodd" d="M86.2691 346.392C86.4476 346.828 86.239 347.326 85.8031 347.504L85.0474 347.814C84.6115 347.992 84.1134 347.783 83.9349 347.348C83.7564 346.912 83.9651 346.414 84.4009 346.235L85.1566 345.926C85.5925 345.747 86.0906 345.956 86.2691 346.392Z" fill="#001423"/>
<path fill-rule="evenodd" clip-rule="evenodd" d="M102.662 357.18C102.887 356.766 103.404 356.612 103.818 356.837L109.108 359.708C109.522 359.933 109.676 360.45 109.451 360.864C109.226 361.278 108.709 361.432 108.295 361.207L103.005 358.336C102.591 358.111 102.437 357.594 102.662 357.18Z" fill="white"/>
<path fill-rule="evenodd" clip-rule="evenodd" d="M94.5453 341.557C94.7665 341.141 95.2829 340.984 95.6988 341.205L98.51 342.7C98.7884 342.848 98.9624 343.137 98.9624 343.453V351.551L99.5591 351.877C99.8326 352.027 100.003 352.314 100.003 352.626V353.344L100.456 353.592C100.729 353.741 100.9 354.028 100.9 354.34V355.025L102.394 355.844C102.667 355.994 102.837 356.28 102.837 356.592V357.361L103.438 357.698C103.849 357.928 103.996 358.447 103.766 358.858C103.536 359.269 103.016 359.416 102.605 359.186L101.567 358.605C101.298 358.454 101.131 358.17 101.131 357.861V357.097L99.6367 356.278C99.3636 356.128 99.1938 355.842 99.1938 355.53V354.845L98.7407 354.598C98.4672 354.448 98.2971 354.161 98.2971 353.849V353.131L97.7003 352.805C97.4268 352.655 97.2567 352.368 97.2567 352.057V343.965L94.8979 342.711C94.482 342.49 94.3242 341.973 94.5453 341.557Z" fill="white"/>
<g filter="url(#filter2_d)">
<path d="M64.431 142.052C85.0907 142.052 101.839 125.304 101.839 104.644C101.839 83.9843 85.0907 67.2364 64.431 67.2364C43.7714 67.2364 27.0234 83.9843 27.0234 104.644C27.0234 125.304 43.7714 142.052 64.431 142.052Z" fill="#F9FCFF"/>
<path d="M75.9493 87.967L75.9362 114.399L72.1641 116.44L72.1753 90.0063L75.9493 87.967Z" fill="#1792FF"/>
<path d="M72.1691 90.0063L72.1578 116.44L68.3594 114.399L68.3725 87.967L72.1691 90.0063Z" fill="#A4D8FF"/>
<path d="M75.9494 87.967L72.1754 90.0063L68.3789 87.967L72.151 85.926L75.9494 87.967Z" fill="white"/>
<path fill-rule="evenodd" clip-rule="evenodd" d="M71.7437 85.1805C71.9988 85.0425 72.3069 85.042 72.5624 85.1793L76.3608 87.2203C76.6375 87.369 76.8099 87.6562 76.8097 87.9685L76.7966 114.4C76.7964 114.711 76.6251 114.997 76.3498 115.146L72.5777 117.187C72.3227 117.325 72.0145 117.326 71.7591 117.188L67.9607 115.147C67.6839 114.999 67.5116 114.711 67.5117 114.399L67.5249 87.9676C67.525 87.6566 67.6963 87.3704 67.9716 87.2215L71.7437 85.1805ZM72.1556 86.8949L69.239 88.473L69.2263 113.893L72.1659 115.473L75.0825 113.895L75.0951 88.4744L72.1556 86.8949Z" fill="#001423"/>
<path fill-rule="evenodd" clip-rule="evenodd" d="M67.6348 87.5619C67.8602 87.1489 68.3804 86.9953 68.7967 87.2189L72.5933 89.2582C72.8699 89.4068 73.0423 89.6939 73.0423 90.006V116.492C73.0423 116.962 72.6585 117.343 72.1851 117.343C71.7117 117.343 71.328 116.962 71.328 116.492V90.5126L67.9805 88.7146C67.5642 88.4909 67.4094 87.9749 67.6348 87.5619Z" fill="white"/>
<path fill-rule="evenodd" clip-rule="evenodd" d="M76.7042 87.5597C76.9308 87.9721 76.7776 88.4886 76.3619 88.7134L72.5879 90.7544C72.1723 90.9792 71.6516 90.8271 71.425 90.4148C71.1984 90.0024 71.3517 89.4859 71.7674 89.2611L75.5413 87.2201C75.957 86.9953 76.4776 87.1474 76.7042 87.5597Z" fill="white"/>
<path d="M68.379 100.155L68.3659 118.026L64.5938 120.067L64.6069 102.196L68.379 100.155Z" fill="#1792FF"/>
<path d="M64.6066 102.195L64.5934 120.066L60.7969 118.025L60.8081 100.154L64.6066 102.195Z" fill="#A4D8FF"/>
<path d="M68.3791 100.154L64.607 102.195L60.8086 100.154L64.5826 98.115L68.3791 100.154Z" fill="white"/>
<path fill-rule="evenodd" clip-rule="evenodd" d="M64.1699 97.3682C64.4249 97.2305 64.7328 97.2301 64.9881 97.3672L68.7846 99.4065C69.0615 99.5552 69.2339 99.8425 69.2337 100.155L69.2205 118.026C69.2203 118.337 69.049 118.623 68.7738 118.772L65.0016 120.813C64.7465 120.951 64.4383 120.951 64.1828 120.814L60.3863 118.773C60.1096 118.624 59.9373 118.337 59.9375 118.025L59.9488 100.154C59.949 99.8426 60.1205 99.5563 60.3959 99.4075L64.1699 97.3682ZM64.5812 99.0827L61.6628 100.66L61.6522 117.519L64.5899 119.098L67.5065 117.52L67.5189 100.661L64.5812 99.0827Z" fill="#001423"/>
<path fill-rule="evenodd" clip-rule="evenodd" d="M60.0567 99.7483C60.2822 99.3353 60.8024 99.1819 61.2187 99.4055L65.0171 101.447C65.2939 101.595 65.4662 101.883 65.466 102.195L65.4529 120.066C65.4525 120.536 65.0685 120.916 64.5951 120.916C64.1217 120.915 63.7382 120.534 63.7385 120.065L63.7513 102.701L60.4022 100.901C59.986 100.677 59.8313 100.161 60.0567 99.7483Z" fill="white"/>
<path fill-rule="evenodd" clip-rule="evenodd" d="M69.128 99.7461C69.3547 100.158 69.2016 100.675 68.786 100.9L65.0139 102.941C64.5983 103.166 64.0776 103.014 63.8509 102.601C63.6242 102.189 63.7774 101.673 64.193 101.448L67.9651 99.4067C68.3807 99.1818 68.9014 99.3338 69.128 99.7461Z" fill="white"/>
<path d="M60.7892 110.639L60.776 121.302L57.0039 123.343L57.0152 112.68L60.7892 110.639Z" fill="#1792FF"/>
<path d="M57.0167 112.68L57.0054 123.343L53.207 121.302L53.2202 110.639L57.0167 112.68Z" fill="#A4D8FF"/>
<path d="M60.7853 110.64L57.0114 112.681L53.2148 110.64L56.9869 108.6L60.7853 110.64Z" fill="white"/>
<path fill-rule="evenodd" clip-rule="evenodd" d="M56.5799 107.853C56.8348 107.715 57.1427 107.715 57.398 107.852L61.1964 109.891C61.4735 110.04 61.646 110.327 61.6456 110.64L61.6325 121.303C61.6321 121.614 61.4608 121.899 61.1858 122.048L57.4137 124.089C57.1586 124.227 56.8504 124.228 56.595 124.09L52.7966 122.049C52.5196 121.901 52.3473 121.613 52.3477 121.301L52.3608 110.638C52.3612 110.327 52.5326 110.041 52.8078 109.892L56.5799 107.853ZM56.9915 109.567L54.0745 111.144L54.0626 120.796L57.0018 122.375L59.9188 120.797L59.9307 111.145L56.9915 109.567Z" fill="#001423"/>
<path fill-rule="evenodd" clip-rule="evenodd" d="M52.4709 110.233C52.6964 109.821 53.2167 109.667 53.6329 109.891L57.4294 111.932C57.7062 112.081 57.8785 112.368 57.8782 112.681L57.8669 123.343C57.8664 123.813 57.4823 124.193 57.0088 124.193C56.5354 124.192 56.1521 123.811 56.1526 123.342L56.1633 113.186L52.8161 111.386C52.3999 111.163 52.2453 110.646 52.4709 110.233Z" fill="white"/>
<path fill-rule="evenodd" clip-rule="evenodd" d="M61.5402 110.232C61.7668 110.644 61.6135 111.16 61.1979 111.385L57.4239 113.426C57.0082 113.651 56.4876 113.499 56.261 113.087C56.0344 112.674 56.1877 112.158 56.6033 111.933L60.3773 109.892C60.793 109.667 61.3136 109.819 61.5402 110.232Z" fill="white"/>
</g>
<g filter="url(#filter3_d)">
<path d="M442.444 137.129C475.064 137.129 501.509 110.685 501.509 78.0646C501.509 45.4441 475.064 19 442.444 19C409.824 19 383.379 45.4441 383.379 78.0646C383.379 110.685 409.824 137.129 442.444 137.129Z" fill="#F9FCFF"/>
<path d="M467.717 67.3296L442.441 82.0375L416.992 67.3296L442.269 52.6216L467.717 67.3296Z" fill="white"/>
<path d="M442.441 82.0376V103.46L441.728 103.023L440.554 102.343V101.007L439.381 100.328L438.196 99.648V98.3119L437.022 97.6209V96.2963L435.837 95.6053V94.2693L434.664 93.5897L433.49 92.9102V91.5741L432.317 90.8946L432.305 89.5586L431.132 88.8675V87.5315L429.958 86.8519L428.773 86.1724V84.8363L427.6 84.1568V82.8208L426.426 82.1412L426.415 80.8052L425.241 80.1141L424.068 79.4346V78.0985L422.894 77.419L422.883 76.083L421.709 75.3919V74.0674L420.536 73.3763L419.362 72.6968L419.351 71.3607L418.177 70.6812V69.3452L417.004 68.6656L416.992 67.3296L442.441 82.0376Z" fill="#A4D8FF"/>
<path d="M442.449 82.0376V103.46L443.151 103.023L444.325 102.343L444.336 101.007L445.51 100.328L446.683 99.648V98.3119L447.857 97.6209L447.868 96.2963L449.042 95.6053V94.2693L450.215 93.5897L451.389 92.9102L451.4 91.5741L452.574 90.8946V89.5586L453.747 88.8675L453.759 87.5315L454.932 86.8519L456.106 86.1724V84.8363L457.279 84.1568L457.291 82.8208L458.464 82.1412V80.8052L459.638 80.1141L460.811 79.4346L460.823 78.0985L461.996 77.419V76.083L463.17 75.3919L463.181 74.0674L464.355 73.3763L465.528 72.6968V71.3607L466.702 70.6812V69.3452L467.887 68.6656V67.3296L442.449 82.0376Z" fill="#1792FF"/>
<path d="M467.879 67.3295L442.269 52.6216L416.992 67.3295L417.004 68.6656L418.177 69.3451V70.6812L419.351 71.3607L419.362 72.6967L420.536 73.3763L421.709 74.0673V75.3919L422.883 76.0829L422.894 77.419L424.068 78.0985V79.4345L425.241 80.1141L426.415 80.8051L426.426 82.1412L427.6 82.8207V84.1567L428.773 84.8363V86.1723L429.958 86.8519L431.132 87.5314V88.8674L432.305 89.5585L432.317 90.8945L433.49 91.5741V92.9101L434.664 93.5896L435.837 94.2692V95.6052L437.022 96.2963V97.6208L438.196 98.3119V99.6479L439.381 100.327L440.554 101.007V102.343L441.728 103.023L442.441 103.46L443.143 103.023L444.316 102.343L444.328 101.007L445.501 100.327L446.675 99.6479V98.3119L447.848 97.6208L447.86 96.2963L449.033 95.6052V94.2692L450.207 93.5896L451.38 92.9101L451.392 91.5741L452.566 90.8945V89.5585L453.739 88.8674L453.751 87.5314L454.924 86.8519L456.098 86.1723V84.8363L457.271 84.1567L457.283 82.8207L458.456 82.1412V80.8051L459.63 80.1141L460.803 79.4345L460.815 78.0985L461.988 77.419V76.0829L463.162 75.3919L463.173 74.0673L464.347 73.3763L465.52 72.6967V71.3607L466.694 70.6812V69.3451L467.879 68.6656V67.3295Z" stroke="#001423" stroke-width="2" stroke-linejoin="round"/>
<path d="M416.992 67.3296L442.441 82.0376V103.46" stroke="white" stroke-width="2" stroke-linecap="round" stroke-linejoin="round"/>
<path d="M442.438 82.0376L467.875 67.3296" stroke="white" stroke-width="2" stroke-linecap="round" stroke-linejoin="round"/>
</g>
<g opacity="0.1">
<path opacity="0.1" d="M468.61 183.296C470.672 184.442 473.272 183.7 474.418 181.638C475.564 179.576 474.822 176.976 472.76 175.83C470.698 174.684 468.098 175.426 466.952 177.488C465.806 179.55 466.548 182.15 468.61 183.296Z" fill="#001423"/>
<path opacity="0.1" d="M457.544 203.206C459.606 204.352 462.206 203.61 463.352 201.548C464.498 199.486 463.756 196.886 461.694 195.74C459.632 194.594 457.032 195.336 455.886 197.398C454.74 199.46 455.482 202.06 457.544 203.206Z" fill="#001423"/>
<path opacity="0.1" d="M477.458 214.273C479.52 215.419 482.12 214.677 483.266 212.615C484.412 210.553 483.67 207.953 481.608 206.807C479.546 205.661 476.946 206.403 475.8 208.465C474.654 210.527 475.396 213.127 477.458 214.273Z" fill="#001423"/>
<path opacity="0.1" d="M488.524 194.363C490.586 195.509 493.186 194.767 494.332 192.705C495.478 190.643 494.736 188.043 492.674 186.897C490.612 185.751 488.012 186.493 486.866 188.555C485.72 190.617 486.462 193.217 488.524 194.363Z" fill="#001423"/>
<path opacity="0.1" d="M465.692 235.427C467.754 236.573 470.354 235.831 471.5 233.769C472.646 231.707 471.904 229.107 469.842 227.961C467.78 226.815 465.18 227.557 464.034 229.619C462.888 231.681 463.63 234.281 465.692 235.427Z" fill="#001423"/>
<path opacity="0.1" d="M445.782 224.359C447.844 225.505 450.444 224.763 451.59 222.701C452.736 220.639 451.994 218.039 449.932 216.893C447.87 215.747 445.27 216.489 444.124 218.551C442.978 220.613 443.72 223.213 445.782 224.359Z" fill="#001423"/>
</g>
<path d="M96.9143 88.8933C100.72 88.8933 103.805 85.8081 103.805 82.0024C103.805 78.1967 100.72 75.1115 96.9143 75.1115C93.1086 75.1115 90.0234 78.1967 90.0234 82.0024C90.0234 85.8081 93.1086 88.8933 96.9143 88.8933Z" fill="#1792FF"/>
<path opacity="0.1" d="M415.766 332.532C423.921 332.532 430.532 325.921 430.532 317.766C430.532 309.611 423.921 303 415.766 303C407.611 303 401 309.611 401 317.766C401 325.921 407.611 332.532 415.766 332.532Z" fill="#002445"/>
<defs>
<filter id="filter0_d" x="242" y="326" width="145.626" height="145.626" filterUnits="userSpaceOnUse" color-interpolation-filters="sRGB">
<feFlood flood-opacity="0" result="BackgroundImageFix"/>
<feColorMatrix in="SourceAlpha" type="matrix" values="0 0 0 0 0 0 0 0 0 0 0 0 0 0 0 0 0 0 127 0"/>
<feOffset dy="8"/>
<feGaussianBlur stdDeviation="13.5"/>
<feColorMatrix type="matrix" values="0 0 0 0 0 0 0 0 0 0 0 0 0 0 0 0 0 0 0.05 0"/>
<feBlend mode="normal" in2="BackgroundImageFix" result="effect1_dropShadow"/>
<feBlend mode="normal" in="SourceGraphic" in2="effect1_dropShadow" result="shape"/>
</filter>
<filter id="filter1_d" x="374" y="183" width="181.973" height="181.973" filterUnits="userSpaceOnUse" color-interpolation-filters="sRGB">
<feFlood flood-opacity="0" result="BackgroundImageFix"/>
<feColorMatrix in="SourceAlpha" type="matrix" values="0 0 0 0 0 0 0 0 0 0 0 0 0 0 0 0 0 0 127 0"/>
<feOffset dy="8"/>
<feGaussianBlur stdDeviation="13.5"/>
<feColorMatrix type="matrix" values="0 0 0 0 0 0 0 0 0 0 0 0 0 0 0 0 0 0 0.05 0"/>
<feBlend mode="normal" in2="BackgroundImageFix" result="effect1_dropShadow"/>
<feBlend mode="normal" in="SourceGraphic" in2="effect1_dropShadow" result="shape"/>
</filter>
<filter id="filter2_d" x="0.023407" y="48.2364" width="128.815" height="128.815" filterUnits="userSpaceOnUse" color-interpolation-filters="sRGB">
<feFlood flood-opacity="0" result="BackgroundImageFix"/>
<feColorMatrix in="SourceAlpha" type="matrix" values="0 0 0 0 0 0 0 0 0 0 0 0 0 0 0 0 0 0 127 0"/>
<feOffset dy="8"/>
<feGaussianBlur stdDeviation="13.5"/>
<feColorMatrix type="matrix" values="0 0 0 0 0 0 0 0 0 0 0 0 0 0 0 0 0 0 0.05 0"/>
<feBlend mode="normal" in2="BackgroundImageFix" result="effect1_dropShadow"/>
<feBlend mode="normal" in="SourceGraphic" in2="effect1_dropShadow" result="shape"/>
</filter>
<filter id="filter3_d" x="356.379" y="0" width="172.129" height="172.129" filterUnits="userSpaceOnUse" color-interpolation-filters="sRGB">
<feFlood flood-opacity="0" result="BackgroundImageFix"/>
<feColorMatrix in="SourceAlpha" type="matrix" values="0 0 0 0 0 0 0 0 0 0 0 0 0 0 0 0 0 0 127 0"/>
<feOffset dy="8"/>
<feGaussianBlur stdDeviation="13.5"/>
<feColorMatrix type="matrix" values="0 0 0 0 0 0 0 0 0 0 0 0 0 0 0 0 0 0 0.05 0"/>
<feBlend mode="normal" in2="BackgroundImageFix" result="effect1_dropShadow"/>
<feBlend mode="normal" in="SourceGraphic" in2="effect1_dropShadow" result="shape"/>
</filter>
</defs>
</svg>
